/* XPM */
static const char *step_xpm[] = {
/* columns rows colors chars-per-pixel */
"16 16 2 1 ",
"  c None",
". c #2FF96A",
/* pixels */
"                ",
"                ",
" .         . .. ",
" ...       . .. ",
" ....      . .. ",
" ......    . .. ",
" .......   . .. ",
" ........  . .. ",
" ........  . .. ",
" .......   . .. ",
" ......    . .. ",
" ....      . .. ",
" ...       . .. ",
" .         . .. ",
"                ",
"                "
};
